<mxfile host="app.diagrams.net" agent="Mozilla/5.0 (Windows NT 10.0; Win64; x64) AppleWebKit/537.36 (KHTML, like Gecko) Chrome/133.0.0.0 Safari/537.36" version="26.0.6">
  <diagram name="Page-1" id="KRbAP2723ucaYB7gKWgb">
    <mxGraphModel dx="1912" dy="1037" grid="1" gridSize="10" guides="1" tooltips="1" connect="1" arrows="1" fold="1" page="1" pageScale="1" pageWidth="850" pageHeight="1100" math="0" shadow="0">
      <root>
        <mxCell id="0" />
        <mxCell id="1" parent="0" />
        <mxCell id="vm8o_c6Ydsdm37d8BDoq-9" style="edgeStyle=orthogonalEdgeStyle;rounded=0;orthogonalLoop=1;jettySize=auto;html=1;entryX=0;entryY=0.5;entryDx=0;entryDy=0;" edge="1" parent="1" source="vm8o_c6Ydsdm37d8BDoq-2" target="vm8o_c6Ydsdm37d8BDoq-3">
          <mxGeometry relative="1" as="geometry" />
        </mxCell>
        <mxCell id="vm8o_c6Ydsdm37d8BDoq-16" style="edgeStyle=orthogonalEdgeStyle;rounded=0;orthogonalLoop=1;jettySize=auto;html=1;entryX=1;entryY=0.5;entryDx=0;entryDy=0;" edge="1" parent="1" source="vm8o_c6Ydsdm37d8BDoq-2" target="vm8o_c6Ydsdm37d8BDoq-7">
          <mxGeometry relative="1" as="geometry" />
        </mxCell>
        <mxCell id="vm8o_c6Ydsdm37d8BDoq-2" value="A" style="ellipse;whiteSpace=wrap;html=1;aspect=fixed;" vertex="1" parent="1">
          <mxGeometry x="170" y="160" width="30" height="30" as="geometry" />
        </mxCell>
        <mxCell id="vm8o_c6Ydsdm37d8BDoq-10" style="edgeStyle=orthogonalEdgeStyle;rounded=0;orthogonalLoop=1;jettySize=auto;html=1;entryX=0.5;entryY=1;entryDx=0;entryDy=0;" edge="1" parent="1" source="vm8o_c6Ydsdm37d8BDoq-3" target="vm8o_c6Ydsdm37d8BDoq-4">
          <mxGeometry relative="1" as="geometry" />
        </mxCell>
        <mxCell id="vm8o_c6Ydsdm37d8BDoq-11" style="edgeStyle=orthogonalEdgeStyle;rounded=0;orthogonalLoop=1;jettySize=auto;html=1;entryX=0.5;entryY=0;entryDx=0;entryDy=0;" edge="1" parent="1" source="vm8o_c6Ydsdm37d8BDoq-3" target="vm8o_c6Ydsdm37d8BDoq-5">
          <mxGeometry relative="1" as="geometry" />
        </mxCell>
        <mxCell id="vm8o_c6Ydsdm37d8BDoq-3" value="B" style="ellipse;whiteSpace=wrap;html=1;aspect=fixed;" vertex="1" parent="1">
          <mxGeometry x="250" y="160" width="30" height="30" as="geometry" />
        </mxCell>
        <mxCell id="vm8o_c6Ydsdm37d8BDoq-4" value="C" style="ellipse;whiteSpace=wrap;html=1;aspect=fixed;" vertex="1" parent="1">
          <mxGeometry x="250" y="80" width="30" height="30" as="geometry" />
        </mxCell>
        <mxCell id="vm8o_c6Ydsdm37d8BDoq-12" style="rounded=0;orthogonalLoop=1;jettySize=auto;html=1;entryX=0;entryY=0.5;entryDx=0;entryDy=0;" edge="1" parent="1" source="vm8o_c6Ydsdm37d8BDoq-5" target="vm8o_c6Ydsdm37d8BDoq-6">
          <mxGeometry relative="1" as="geometry" />
        </mxCell>
        <mxCell id="vm8o_c6Ydsdm37d8BDoq-14" style="rounded=0;orthogonalLoop=1;jettySize=auto;html=1;exitX=0;exitY=1;exitDx=0;exitDy=0;entryX=1;entryY=0;entryDx=0;entryDy=0;" edge="1" parent="1" source="vm8o_c6Ydsdm37d8BDoq-5" target="vm8o_c6Ydsdm37d8BDoq-13">
          <mxGeometry relative="1" as="geometry" />
        </mxCell>
        <mxCell id="vm8o_c6Ydsdm37d8BDoq-5" value="D" style="ellipse;whiteSpace=wrap;html=1;aspect=fixed;" vertex="1" parent="1">
          <mxGeometry x="250" y="230" width="30" height="30" as="geometry" />
        </mxCell>
        <mxCell id="vm8o_c6Ydsdm37d8BDoq-6" value="G" style="ellipse;whiteSpace=wrap;html=1;aspect=fixed;" vertex="1" parent="1">
          <mxGeometry x="330" y="200" width="30" height="30" as="geometry" />
        </mxCell>
        <mxCell id="vm8o_c6Ydsdm37d8BDoq-17" style="edgeStyle=orthogonalEdgeStyle;rounded=0;orthogonalLoop=1;jettySize=auto;html=1;entryX=1;entryY=0.5;entryDx=0;entryDy=0;" edge="1" parent="1" source="vm8o_c6Ydsdm37d8BDoq-7" target="vm8o_c6Ydsdm37d8BDoq-8">
          <mxGeometry relative="1" as="geometry" />
        </mxCell>
        <mxCell id="vm8o_c6Ydsdm37d8BDoq-7" value="H" style="ellipse;whiteSpace=wrap;html=1;aspect=fixed;" vertex="1" parent="1">
          <mxGeometry x="90" y="160" width="30" height="30" as="geometry" />
        </mxCell>
        <mxCell id="vm8o_c6Ydsdm37d8BDoq-8" value="J" style="ellipse;whiteSpace=wrap;html=1;aspect=fixed;" vertex="1" parent="1">
          <mxGeometry x="10" y="160" width="30" height="30" as="geometry" />
        </mxCell>
        <mxCell id="vm8o_c6Ydsdm37d8BDoq-13" value="C" style="ellipse;whiteSpace=wrap;html=1;aspect=fixed;" vertex="1" parent="1">
          <mxGeometry x="180" y="280" width="30" height="30" as="geometry" />
        </mxCell>
        <mxCell id="vm8o_c6Ydsdm37d8BDoq-18" value="1" style="text;html=1;align=center;verticalAlign=middle;resizable=0;points=[];autosize=1;strokeColor=none;fillColor=none;" vertex="1" parent="1">
          <mxGeometry x="295" y="230" width="30" height="30" as="geometry" />
        </mxCell>
        <mxCell id="vm8o_c6Ydsdm37d8BDoq-19" value="1" style="text;html=1;align=center;verticalAlign=middle;resizable=0;points=[];autosize=1;strokeColor=none;fillColor=none;" vertex="1" parent="1">
          <mxGeometry x="220" y="268" width="30" height="30" as="geometry" />
        </mxCell>
        <mxCell id="vm8o_c6Ydsdm37d8BDoq-20" value="1" style="text;html=1;align=center;verticalAlign=middle;resizable=0;points=[];autosize=1;strokeColor=none;fillColor=none;" vertex="1" parent="1">
          <mxGeometry x="260" y="190" width="30" height="30" as="geometry" />
        </mxCell>
        <mxCell id="vm8o_c6Ydsdm37d8BDoq-21" value="3" style="text;html=1;align=center;verticalAlign=middle;resizable=0;points=[];autosize=1;strokeColor=none;fillColor=none;" vertex="1" parent="1">
          <mxGeometry x="260" y="120" width="30" height="30" as="geometry" />
        </mxCell>
        <mxCell id="vm8o_c6Ydsdm37d8BDoq-22" value="1" style="text;html=1;align=center;verticalAlign=middle;resizable=0;points=[];autosize=1;strokeColor=none;fillColor=none;" vertex="1" parent="1">
          <mxGeometry x="210" y="150" width="30" height="30" as="geometry" />
        </mxCell>
        <mxCell id="vm8o_c6Ydsdm37d8BDoq-23" value="3" style="text;html=1;align=center;verticalAlign=middle;resizable=0;points=[];autosize=1;strokeColor=none;fillColor=none;" vertex="1" parent="1">
          <mxGeometry x="135" y="148" width="30" height="30" as="geometry" />
        </mxCell>
        <mxCell id="vm8o_c6Ydsdm37d8BDoq-24" value="1" style="text;html=1;align=center;verticalAlign=middle;resizable=0;points=[];autosize=1;strokeColor=none;fillColor=none;" vertex="1" parent="1">
          <mxGeometry x="55" y="150" width="30" height="30" as="geometry" />
        </mxCell>
        <mxCell id="vm8o_c6Ydsdm37d8BDoq-25" value="Graph" style="text;html=1;align=center;verticalAlign=middle;whiteSpace=wrap;rounded=0;" vertex="1" parent="1">
          <mxGeometry y="50" width="60" height="30" as="geometry" />
        </mxCell>
        <mxCell id="vm8o_c6Ydsdm37d8BDoq-26" value="Tree" style="text;html=1;align=center;verticalAlign=middle;whiteSpace=wrap;rounded=0;" vertex="1" parent="1">
          <mxGeometry x="440" y="50" width="60" height="30" as="geometry" />
        </mxCell>
        <mxCell id="vm8o_c6Ydsdm37d8BDoq-35" style="rounded=0;orthogonalLoop=1;jettySize=auto;html=1;exitX=0;exitY=1;exitDx=0;exitDy=0;entryX=1;entryY=0;entryDx=0;entryDy=0;" edge="1" parent="1" source="vm8o_c6Ydsdm37d8BDoq-27" target="vm8o_c6Ydsdm37d8BDoq-28">
          <mxGeometry relative="1" as="geometry" />
        </mxCell>
        <mxCell id="vm8o_c6Ydsdm37d8BDoq-40" style="rounded=0;orthogonalLoop=1;jettySize=auto;html=1;exitX=1;exitY=1;exitDx=0;exitDy=0;entryX=0;entryY=0;entryDx=0;entryDy=0;" edge="1" parent="1" source="vm8o_c6Ydsdm37d8BDoq-27" target="vm8o_c6Ydsdm37d8BDoq-33">
          <mxGeometry relative="1" as="geometry" />
        </mxCell>
        <mxCell id="vm8o_c6Ydsdm37d8BDoq-27" value="A" style="ellipse;whiteSpace=wrap;html=1;aspect=fixed;" vertex="1" parent="1">
          <mxGeometry x="620" y="80" width="30" height="30" as="geometry" />
        </mxCell>
        <mxCell id="vm8o_c6Ydsdm37d8BDoq-36" style="rounded=0;orthogonalLoop=1;jettySize=auto;html=1;exitX=0;exitY=1;exitDx=0;exitDy=0;entryX=1;entryY=0;entryDx=0;entryDy=0;" edge="1" parent="1" source="vm8o_c6Ydsdm37d8BDoq-28" target="vm8o_c6Ydsdm37d8BDoq-29">
          <mxGeometry relative="1" as="geometry" />
        </mxCell>
        <mxCell id="vm8o_c6Ydsdm37d8BDoq-37" style="rounded=0;orthogonalLoop=1;jettySize=auto;html=1;exitX=1;exitY=1;exitDx=0;exitDy=0;entryX=0;entryY=0;entryDx=0;entryDy=0;" edge="1" parent="1" source="vm8o_c6Ydsdm37d8BDoq-28" target="vm8o_c6Ydsdm37d8BDoq-30">
          <mxGeometry relative="1" as="geometry" />
        </mxCell>
        <mxCell id="vm8o_c6Ydsdm37d8BDoq-28" value="B" style="ellipse;whiteSpace=wrap;html=1;aspect=fixed;" vertex="1" parent="1">
          <mxGeometry x="560" y="130" width="30" height="30" as="geometry" />
        </mxCell>
        <mxCell id="vm8o_c6Ydsdm37d8BDoq-29" value="C" style="ellipse;whiteSpace=wrap;html=1;aspect=fixed;" vertex="1" parent="1">
          <mxGeometry x="500" y="178" width="30" height="30" as="geometry" />
        </mxCell>
        <mxCell id="vm8o_c6Ydsdm37d8BDoq-38" style="rounded=0;orthogonalLoop=1;jettySize=auto;html=1;exitX=0;exitY=1;exitDx=0;exitDy=0;entryX=1;entryY=0;entryDx=0;entryDy=0;" edge="1" parent="1" source="vm8o_c6Ydsdm37d8BDoq-30" target="vm8o_c6Ydsdm37d8BDoq-32">
          <mxGeometry relative="1" as="geometry" />
        </mxCell>
        <mxCell id="vm8o_c6Ydsdm37d8BDoq-39" style="rounded=0;orthogonalLoop=1;jettySize=auto;html=1;exitX=1;exitY=1;exitDx=0;exitDy=0;entryX=0;entryY=0;entryDx=0;entryDy=0;" edge="1" parent="1" source="vm8o_c6Ydsdm37d8BDoq-30" target="vm8o_c6Ydsdm37d8BDoq-31">
          <mxGeometry relative="1" as="geometry" />
        </mxCell>
        <mxCell id="vm8o_c6Ydsdm37d8BDoq-30" value="D" style="ellipse;whiteSpace=wrap;html=1;aspect=fixed;" vertex="1" parent="1">
          <mxGeometry x="620" y="178" width="30" height="30" as="geometry" />
        </mxCell>
        <mxCell id="vm8o_c6Ydsdm37d8BDoq-31" value="G" style="ellipse;whiteSpace=wrap;html=1;aspect=fixed;" vertex="1" parent="1">
          <mxGeometry x="680" y="230" width="30" height="30" as="geometry" />
        </mxCell>
        <mxCell id="vm8o_c6Ydsdm37d8BDoq-32" value="E" style="ellipse;whiteSpace=wrap;html=1;aspect=fixed;" vertex="1" parent="1">
          <mxGeometry x="560" y="230" width="30" height="30" as="geometry" />
        </mxCell>
        <mxCell id="vm8o_c6Ydsdm37d8BDoq-41" style="rounded=0;orthogonalLoop=1;jettySize=auto;html=1;exitX=1;exitY=1;exitDx=0;exitDy=0;entryX=0;entryY=0;entryDx=0;entryDy=0;" edge="1" parent="1" source="vm8o_c6Ydsdm37d8BDoq-33" target="vm8o_c6Ydsdm37d8BDoq-34">
          <mxGeometry relative="1" as="geometry" />
        </mxCell>
        <mxCell id="vm8o_c6Ydsdm37d8BDoq-33" value="H" style="ellipse;whiteSpace=wrap;html=1;aspect=fixed;" vertex="1" parent="1">
          <mxGeometry x="680" y="130" width="30" height="30" as="geometry" />
        </mxCell>
        <mxCell id="vm8o_c6Ydsdm37d8BDoq-34" value="J" style="ellipse;whiteSpace=wrap;html=1;aspect=fixed;" vertex="1" parent="1">
          <mxGeometry x="740" y="180" width="30" height="30" as="geometry" />
        </mxCell>
        <mxCell id="vm8o_c6Ydsdm37d8BDoq-43" value="H = 3" style="text;html=1;align=center;verticalAlign=middle;resizable=0;points=[];autosize=1;strokeColor=none;fillColor=none;labelBackgroundColor=none;fontColor=light-dark(#ff0000, #ededed);" vertex="1" parent="1">
          <mxGeometry x="610" y="50" width="50" height="30" as="geometry" />
        </mxCell>
        <mxCell id="vm8o_c6Ydsdm37d8BDoq-44" value="H = 2" style="text;html=1;align=center;verticalAlign=middle;resizable=0;points=[];autosize=1;strokeColor=none;fillColor=none;fontColor=light-dark(#ff0000, #ededed);" vertex="1" parent="1">
          <mxGeometry x="550" y="100" width="50" height="30" as="geometry" />
        </mxCell>
        <mxCell id="vm8o_c6Ydsdm37d8BDoq-45" value="H = 5" style="text;html=1;align=center;verticalAlign=middle;resizable=0;points=[];autosize=1;strokeColor=none;fillColor=none;fontColor=light-dark(#ff0000, #ededed);" vertex="1" parent="1">
          <mxGeometry x="490" y="148" width="50" height="30" as="geometry" />
        </mxCell>
        <mxCell id="vm8o_c6Ydsdm37d8BDoq-46" value="H = 4" style="text;html=1;align=center;verticalAlign=middle;resizable=0;points=[];autosize=1;strokeColor=none;fillColor=none;fontColor=light-dark(#ff0000, #ededed);" vertex="1" parent="1">
          <mxGeometry x="550" y="200" width="50" height="30" as="geometry" />
        </mxCell>
        <mxCell id="vm8o_c6Ydsdm37d8BDoq-48" value="H = 1" style="text;html=1;align=center;verticalAlign=middle;resizable=0;points=[];autosize=1;strokeColor=none;fillColor=none;fontColor=light-dark(#ff0000, #ededed);" vertex="1" parent="1">
          <mxGeometry x="610" y="148" width="50" height="30" as="geometry" />
        </mxCell>
        <mxCell id="vm8o_c6Ydsdm37d8BDoq-49" value="H = 0" style="text;html=1;align=center;verticalAlign=middle;resizable=0;points=[];autosize=1;strokeColor=none;fillColor=none;fontColor=light-dark(#ff0000, #ededed);" vertex="1" parent="1">
          <mxGeometry x="670" y="200" width="50" height="30" as="geometry" />
        </mxCell>
        <mxCell id="vm8o_c6Ydsdm37d8BDoq-50" value="H = 7" style="text;html=1;align=center;verticalAlign=middle;resizable=0;points=[];autosize=1;strokeColor=none;fillColor=none;fontColor=light-dark(#ff0000, #ededed);" vertex="1" parent="1">
          <mxGeometry x="730" y="150" width="50" height="30" as="geometry" />
        </mxCell>
        <mxCell id="vm8o_c6Ydsdm37d8BDoq-56" value="3" style="text;html=1;align=center;verticalAlign=middle;resizable=0;points=[];autosize=1;strokeColor=none;fillColor=none;" vertex="1" parent="1">
          <mxGeometry x="660" y="90" width="30" height="30" as="geometry" />
        </mxCell>
        <mxCell id="vm8o_c6Ydsdm37d8BDoq-57" value="1" style="text;html=1;align=center;verticalAlign=middle;resizable=0;points=[];autosize=1;strokeColor=none;fillColor=none;" vertex="1" parent="1">
          <mxGeometry x="710" y="140" width="30" height="30" as="geometry" />
        </mxCell>
        <mxCell id="vm8o_c6Ydsdm37d8BDoq-58" value="1" style="text;html=1;align=center;verticalAlign=middle;resizable=0;points=[];autosize=1;strokeColor=none;fillColor=none;" vertex="1" parent="1">
          <mxGeometry x="650" y="190" width="30" height="30" as="geometry" />
        </mxCell>
        <mxCell id="vm8o_c6Ydsdm37d8BDoq-59" value="3" style="text;html=1;align=center;verticalAlign=middle;resizable=0;points=[];autosize=1;strokeColor=none;fillColor=none;" vertex="1" parent="1">
          <mxGeometry x="590" y="190" width="30" height="30" as="geometry" />
        </mxCell>
        <mxCell id="vm8o_c6Ydsdm37d8BDoq-60" value="3" style="text;html=1;align=center;verticalAlign=middle;resizable=0;points=[];autosize=1;strokeColor=none;fillColor=none;" vertex="1" parent="1">
          <mxGeometry x="530" y="140" width="30" height="30" as="geometry" />
        </mxCell>
        <mxCell id="vm8o_c6Ydsdm37d8BDoq-61" value="1" style="text;html=1;align=center;verticalAlign=middle;resizable=0;points=[];autosize=1;strokeColor=none;fillColor=none;" vertex="1" parent="1">
          <mxGeometry x="590" y="90" width="30" height="30" as="geometry" />
        </mxCell>
        <mxCell id="vm8o_c6Ydsdm37d8BDoq-63" value="1" style="text;html=1;align=center;verticalAlign=middle;resizable=0;points=[];autosize=1;strokeColor=none;fillColor=none;" vertex="1" parent="1">
          <mxGeometry x="590" y="148" width="30" height="30" as="geometry" />
        </mxCell>
        <mxCell id="vm8o_c6Ydsdm37d8BDoq-64" value="DPS" style="text;html=1;align=center;verticalAlign=middle;whiteSpace=wrap;rounded=0;" vertex="1" parent="1">
          <mxGeometry x="10" y="400" width="60" height="30" as="geometry" />
        </mxCell>
        <mxCell id="vm8o_c6Ydsdm37d8BDoq-65" style="rounded=0;orthogonalLoop=1;jettySize=auto;html=1;exitX=0;exitY=1;exitDx=0;exitDy=0;entryX=1;entryY=0;entryDx=0;entryDy=0;fillColor=#f8cecc;strokeColor=#b85450;" edge="1" parent="1" source="vm8o_c6Ydsdm37d8BDoq-67" target="vm8o_c6Ydsdm37d8BDoq-70">
          <mxGeometry relative="1" as="geometry" />
        </mxCell>
        <mxCell id="vm8o_c6Ydsdm37d8BDoq-66" style="rounded=0;orthogonalLoop=1;jettySize=auto;html=1;exitX=1;exitY=1;exitDx=0;exitDy=0;entryX=0;entryY=0;entryDx=0;entryDy=0;" edge="1" parent="1" source="vm8o_c6Ydsdm37d8BDoq-67" target="vm8o_c6Ydsdm37d8BDoq-78">
          <mxGeometry relative="1" as="geometry" />
        </mxCell>
        <mxCell id="vm8o_c6Ydsdm37d8BDoq-67" value="A" style="ellipse;whiteSpace=wrap;html=1;aspect=fixed;fillColor=#f8cecc;strokeColor=#b85450;" vertex="1" parent="1">
          <mxGeometry x="190" y="430" width="30" height="30" as="geometry" />
        </mxCell>
        <mxCell id="vm8o_c6Ydsdm37d8BDoq-68" style="rounded=0;orthogonalLoop=1;jettySize=auto;html=1;exitX=0;exitY=1;exitDx=0;exitDy=0;entryX=1;entryY=0;entryDx=0;entryDy=0;" edge="1" parent="1" source="vm8o_c6Ydsdm37d8BDoq-70" target="vm8o_c6Ydsdm37d8BDoq-71">
          <mxGeometry relative="1" as="geometry" />
        </mxCell>
        <mxCell id="vm8o_c6Ydsdm37d8BDoq-69" style="rounded=0;orthogonalLoop=1;jettySize=auto;html=1;exitX=1;exitY=1;exitDx=0;exitDy=0;entryX=0;entryY=0;entryDx=0;entryDy=0;fillColor=#f8cecc;strokeColor=#b85450;" edge="1" parent="1" source="vm8o_c6Ydsdm37d8BDoq-70" target="vm8o_c6Ydsdm37d8BDoq-74">
          <mxGeometry relative="1" as="geometry" />
        </mxCell>
        <mxCell id="vm8o_c6Ydsdm37d8BDoq-70" value="B" style="ellipse;whiteSpace=wrap;html=1;aspect=fixed;fillColor=#f8cecc;strokeColor=#b85450;" vertex="1" parent="1">
          <mxGeometry x="130" y="480" width="30" height="30" as="geometry" />
        </mxCell>
        <mxCell id="vm8o_c6Ydsdm37d8BDoq-71" value="C" style="ellipse;whiteSpace=wrap;html=1;aspect=fixed;" vertex="1" parent="1">
          <mxGeometry x="70" y="528" width="30" height="30" as="geometry" />
        </mxCell>
        <mxCell id="vm8o_c6Ydsdm37d8BDoq-72" style="rounded=0;orthogonalLoop=1;jettySize=auto;html=1;exitX=0;exitY=1;exitDx=0;exitDy=0;entryX=1;entryY=0;entryDx=0;entryDy=0;" edge="1" parent="1" source="vm8o_c6Ydsdm37d8BDoq-74" target="vm8o_c6Ydsdm37d8BDoq-76">
          <mxGeometry relative="1" as="geometry" />
        </mxCell>
        <mxCell id="vm8o_c6Ydsdm37d8BDoq-73" style="rounded=0;orthogonalLoop=1;jettySize=auto;html=1;exitX=1;exitY=1;exitDx=0;exitDy=0;entryX=0;entryY=0;entryDx=0;entryDy=0;fillColor=#f8cecc;strokeColor=#b85450;" edge="1" parent="1" source="vm8o_c6Ydsdm37d8BDoq-74" target="vm8o_c6Ydsdm37d8BDoq-75">
          <mxGeometry relative="1" as="geometry" />
        </mxCell>
        <mxCell id="vm8o_c6Ydsdm37d8BDoq-74" value="D" style="ellipse;whiteSpace=wrap;html=1;aspect=fixed;fillColor=#f8cecc;strokeColor=#b85450;" vertex="1" parent="1">
          <mxGeometry x="190" y="528" width="30" height="30" as="geometry" />
        </mxCell>
        <mxCell id="vm8o_c6Ydsdm37d8BDoq-75" value="G" style="ellipse;whiteSpace=wrap;html=1;aspect=fixed;fillColor=#f8cecc;strokeColor=#b85450;" vertex="1" parent="1">
          <mxGeometry x="250" y="580" width="30" height="30" as="geometry" />
        </mxCell>
        <mxCell id="vm8o_c6Ydsdm37d8BDoq-76" value="E" style="ellipse;whiteSpace=wrap;html=1;aspect=fixed;" vertex="1" parent="1">
          <mxGeometry x="130" y="580" width="30" height="30" as="geometry" />
        </mxCell>
        <mxCell id="vm8o_c6Ydsdm37d8BDoq-77" style="rounded=0;orthogonalLoop=1;jettySize=auto;html=1;exitX=1;exitY=1;exitDx=0;exitDy=0;entryX=0;entryY=0;entryDx=0;entryDy=0;" edge="1" parent="1" source="vm8o_c6Ydsdm37d8BDoq-78" target="vm8o_c6Ydsdm37d8BDoq-79">
          <mxGeometry relative="1" as="geometry" />
        </mxCell>
        <mxCell id="vm8o_c6Ydsdm37d8BDoq-78" value="H" style="ellipse;whiteSpace=wrap;html=1;aspect=fixed;" vertex="1" parent="1">
          <mxGeometry x="250" y="480" width="30" height="30" as="geometry" />
        </mxCell>
        <mxCell id="vm8o_c6Ydsdm37d8BDoq-79" value="J" style="ellipse;whiteSpace=wrap;html=1;aspect=fixed;" vertex="1" parent="1">
          <mxGeometry x="310" y="530" width="30" height="30" as="geometry" />
        </mxCell>
        <mxCell id="vm8o_c6Ydsdm37d8BDoq-80" value="H = 3" style="text;html=1;align=center;verticalAlign=middle;resizable=0;points=[];autosize=1;strokeColor=none;fillColor=none;labelBackgroundColor=none;fontColor=light-dark(#ff0000, #ededed);" vertex="1" parent="1">
          <mxGeometry x="180" y="400" width="50" height="30" as="geometry" />
        </mxCell>
        <mxCell id="vm8o_c6Ydsdm37d8BDoq-81" value="H = 2" style="text;html=1;align=center;verticalAlign=middle;resizable=0;points=[];autosize=1;strokeColor=none;fillColor=none;fontColor=light-dark(#ff0000, #ededed);" vertex="1" parent="1">
          <mxGeometry x="120" y="450" width="50" height="30" as="geometry" />
        </mxCell>
        <mxCell id="vm8o_c6Ydsdm37d8BDoq-82" value="H = 5" style="text;html=1;align=center;verticalAlign=middle;resizable=0;points=[];autosize=1;strokeColor=none;fillColor=none;fontColor=light-dark(#ff0000, #ededed);" vertex="1" parent="1">
          <mxGeometry x="60" y="498" width="50" height="30" as="geometry" />
        </mxCell>
        <mxCell id="vm8o_c6Ydsdm37d8BDoq-83" value="H = 4" style="text;html=1;align=center;verticalAlign=middle;resizable=0;points=[];autosize=1;strokeColor=none;fillColor=none;fontColor=light-dark(#ff0000, #ededed);" vertex="1" parent="1">
          <mxGeometry x="120" y="550" width="50" height="30" as="geometry" />
        </mxCell>
        <mxCell id="vm8o_c6Ydsdm37d8BDoq-84" value="H = 1" style="text;html=1;align=center;verticalAlign=middle;resizable=0;points=[];autosize=1;strokeColor=none;fillColor=none;fontColor=light-dark(#ff0000, #ededed);" vertex="1" parent="1">
          <mxGeometry x="180" y="498" width="50" height="30" as="geometry" />
        </mxCell>
        <mxCell id="vm8o_c6Ydsdm37d8BDoq-85" value="H = 0" style="text;html=1;align=center;verticalAlign=middle;resizable=0;points=[];autosize=1;strokeColor=none;fillColor=none;fontColor=light-dark(#ff0000, #ededed);" vertex="1" parent="1">
          <mxGeometry x="240" y="550" width="50" height="30" as="geometry" />
        </mxCell>
        <mxCell id="vm8o_c6Ydsdm37d8BDoq-86" value="H = 7" style="text;html=1;align=center;verticalAlign=middle;resizable=0;points=[];autosize=1;strokeColor=none;fillColor=none;fontColor=light-dark(#ff0000, #ededed);" vertex="1" parent="1">
          <mxGeometry x="300" y="500" width="50" height="30" as="geometry" />
        </mxCell>
        <mxCell id="vm8o_c6Ydsdm37d8BDoq-87" value="3" style="text;html=1;align=center;verticalAlign=middle;resizable=0;points=[];autosize=1;strokeColor=none;fillColor=none;" vertex="1" parent="1">
          <mxGeometry x="230" y="440" width="30" height="30" as="geometry" />
        </mxCell>
        <mxCell id="vm8o_c6Ydsdm37d8BDoq-88" value="1" style="text;html=1;align=center;verticalAlign=middle;resizable=0;points=[];autosize=1;strokeColor=none;fillColor=none;" vertex="1" parent="1">
          <mxGeometry x="280" y="490" width="30" height="30" as="geometry" />
        </mxCell>
        <mxCell id="vm8o_c6Ydsdm37d8BDoq-89" value="1" style="text;html=1;align=center;verticalAlign=middle;resizable=0;points=[];autosize=1;strokeColor=none;fillColor=none;" vertex="1" parent="1">
          <mxGeometry x="220" y="540" width="30" height="30" as="geometry" />
        </mxCell>
        <mxCell id="vm8o_c6Ydsdm37d8BDoq-90" value="3" style="text;html=1;align=center;verticalAlign=middle;resizable=0;points=[];autosize=1;strokeColor=none;fillColor=none;" vertex="1" parent="1">
          <mxGeometry x="160" y="540" width="30" height="30" as="geometry" />
        </mxCell>
        <mxCell id="vm8o_c6Ydsdm37d8BDoq-91" value="3" style="text;html=1;align=center;verticalAlign=middle;resizable=0;points=[];autosize=1;strokeColor=none;fillColor=none;" vertex="1" parent="1">
          <mxGeometry x="100" y="490" width="30" height="30" as="geometry" />
        </mxCell>
        <mxCell id="vm8o_c6Ydsdm37d8BDoq-92" value="1" style="text;html=1;align=center;verticalAlign=middle;resizable=0;points=[];autosize=1;strokeColor=none;fillColor=none;" vertex="1" parent="1">
          <mxGeometry x="160" y="440" width="30" height="30" as="geometry" />
        </mxCell>
        <mxCell id="vm8o_c6Ydsdm37d8BDoq-93" value="1" style="text;html=1;align=center;verticalAlign=middle;resizable=0;points=[];autosize=1;strokeColor=none;fillColor=none;" vertex="1" parent="1">
          <mxGeometry x="160" y="498" width="30" height="30" as="geometry" />
        </mxCell>
        <mxCell id="vm8o_c6Ydsdm37d8BDoq-124" value="Greedy" style="text;html=1;align=center;verticalAlign=middle;whiteSpace=wrap;rounded=0;" vertex="1" parent="1">
          <mxGeometry x="465" y="400" width="60" height="30" as="geometry" />
        </mxCell>
        <mxCell id="vm8o_c6Ydsdm37d8BDoq-125" style="rounded=0;orthogonalLoop=1;jettySize=auto;html=1;exitX=0;exitY=1;exitDx=0;exitDy=0;entryX=1;entryY=0;entryDx=0;entryDy=0;fillColor=#f8cecc;strokeColor=#b85450;" edge="1" parent="1" source="vm8o_c6Ydsdm37d8BDoq-127" target="vm8o_c6Ydsdm37d8BDoq-130">
          <mxGeometry relative="1" as="geometry" />
        </mxCell>
        <mxCell id="vm8o_c6Ydsdm37d8BDoq-126" style="rounded=0;orthogonalLoop=1;jettySize=auto;html=1;exitX=1;exitY=1;exitDx=0;exitDy=0;entryX=0;entryY=0;entryDx=0;entryDy=0;" edge="1" parent="1" source="vm8o_c6Ydsdm37d8BDoq-127" target="vm8o_c6Ydsdm37d8BDoq-138">
          <mxGeometry relative="1" as="geometry" />
        </mxCell>
        <mxCell id="vm8o_c6Ydsdm37d8BDoq-127" value="A" style="ellipse;whiteSpace=wrap;html=1;aspect=fixed;fillColor=#f8cecc;strokeColor=#b85450;" vertex="1" parent="1">
          <mxGeometry x="645" y="430" width="30" height="30" as="geometry" />
        </mxCell>
        <mxCell id="vm8o_c6Ydsdm37d8BDoq-128" style="rounded=0;orthogonalLoop=1;jettySize=auto;html=1;exitX=0;exitY=1;exitDx=0;exitDy=0;entryX=1;entryY=0;entryDx=0;entryDy=0;" edge="1" parent="1" source="vm8o_c6Ydsdm37d8BDoq-130" target="vm8o_c6Ydsdm37d8BDoq-131">
          <mxGeometry relative="1" as="geometry" />
        </mxCell>
        <mxCell id="vm8o_c6Ydsdm37d8BDoq-129" style="rounded=0;orthogonalLoop=1;jettySize=auto;html=1;exitX=1;exitY=1;exitDx=0;exitDy=0;entryX=0;entryY=0;entryDx=0;entryDy=0;fillColor=#f8cecc;strokeColor=#b85450;" edge="1" parent="1" source="vm8o_c6Ydsdm37d8BDoq-130" target="vm8o_c6Ydsdm37d8BDoq-134">
          <mxGeometry relative="1" as="geometry" />
        </mxCell>
        <mxCell id="vm8o_c6Ydsdm37d8BDoq-130" value="B" style="ellipse;whiteSpace=wrap;html=1;aspect=fixed;fillColor=#f8cecc;strokeColor=#b85450;" vertex="1" parent="1">
          <mxGeometry x="585" y="480" width="30" height="30" as="geometry" />
        </mxCell>
        <mxCell id="vm8o_c6Ydsdm37d8BDoq-131" value="C" style="ellipse;whiteSpace=wrap;html=1;aspect=fixed;" vertex="1" parent="1">
          <mxGeometry x="525" y="528" width="30" height="30" as="geometry" />
        </mxCell>
        <mxCell id="vm8o_c6Ydsdm37d8BDoq-132" style="rounded=0;orthogonalLoop=1;jettySize=auto;html=1;exitX=0;exitY=1;exitDx=0;exitDy=0;entryX=1;entryY=0;entryDx=0;entryDy=0;" edge="1" parent="1" source="vm8o_c6Ydsdm37d8BDoq-134" target="vm8o_c6Ydsdm37d8BDoq-136">
          <mxGeometry relative="1" as="geometry" />
        </mxCell>
        <mxCell id="vm8o_c6Ydsdm37d8BDoq-133" style="rounded=0;orthogonalLoop=1;jettySize=auto;html=1;exitX=1;exitY=1;exitDx=0;exitDy=0;entryX=0;entryY=0;entryDx=0;entryDy=0;fillColor=#f8cecc;strokeColor=#b85450;" edge="1" parent="1" source="vm8o_c6Ydsdm37d8BDoq-134" target="vm8o_c6Ydsdm37d8BDoq-135">
          <mxGeometry relative="1" as="geometry" />
        </mxCell>
        <mxCell id="vm8o_c6Ydsdm37d8BDoq-134" value="D" style="ellipse;whiteSpace=wrap;html=1;aspect=fixed;fillColor=#f8cecc;strokeColor=#b85450;" vertex="1" parent="1">
          <mxGeometry x="645" y="528" width="30" height="30" as="geometry" />
        </mxCell>
        <mxCell id="vm8o_c6Ydsdm37d8BDoq-135" value="G" style="ellipse;whiteSpace=wrap;html=1;aspect=fixed;fillColor=#f8cecc;strokeColor=#b85450;" vertex="1" parent="1">
          <mxGeometry x="705" y="580" width="30" height="30" as="geometry" />
        </mxCell>
        <mxCell id="vm8o_c6Ydsdm37d8BDoq-136" value="E" style="ellipse;whiteSpace=wrap;html=1;aspect=fixed;" vertex="1" parent="1">
          <mxGeometry x="585" y="580" width="30" height="30" as="geometry" />
        </mxCell>
        <mxCell id="vm8o_c6Ydsdm37d8BDoq-137" style="rounded=0;orthogonalLoop=1;jettySize=auto;html=1;exitX=1;exitY=1;exitDx=0;exitDy=0;entryX=0;entryY=0;entryDx=0;entryDy=0;" edge="1" parent="1" source="vm8o_c6Ydsdm37d8BDoq-138" target="vm8o_c6Ydsdm37d8BDoq-139">
          <mxGeometry relative="1" as="geometry" />
        </mxCell>
        <mxCell id="vm8o_c6Ydsdm37d8BDoq-138" value="H" style="ellipse;whiteSpace=wrap;html=1;aspect=fixed;" vertex="1" parent="1">
          <mxGeometry x="705" y="480" width="30" height="30" as="geometry" />
        </mxCell>
        <mxCell id="vm8o_c6Ydsdm37d8BDoq-139" value="J" style="ellipse;whiteSpace=wrap;html=1;aspect=fixed;" vertex="1" parent="1">
          <mxGeometry x="765" y="530" width="30" height="30" as="geometry" />
        </mxCell>
        <mxCell id="vm8o_c6Ydsdm37d8BDoq-140" value="H = 3" style="text;html=1;align=center;verticalAlign=middle;resizable=0;points=[];autosize=1;strokeColor=none;fillColor=none;labelBackgroundColor=none;fontColor=light-dark(#ff0000, #ededed);" vertex="1" parent="1">
          <mxGeometry x="635" y="400" width="50" height="30" as="geometry" />
        </mxCell>
        <mxCell id="vm8o_c6Ydsdm37d8BDoq-141" value="H = 2" style="text;html=1;align=center;verticalAlign=middle;resizable=0;points=[];autosize=1;strokeColor=none;fillColor=none;fontColor=light-dark(#ff0000, #ededed);" vertex="1" parent="1">
          <mxGeometry x="575" y="450" width="50" height="30" as="geometry" />
        </mxCell>
        <mxCell id="vm8o_c6Ydsdm37d8BDoq-142" value="H = 5" style="text;html=1;align=center;verticalAlign=middle;resizable=0;points=[];autosize=1;strokeColor=none;fillColor=none;fontColor=light-dark(#ff0000, #ededed);" vertex="1" parent="1">
          <mxGeometry x="515" y="498" width="50" height="30" as="geometry" />
        </mxCell>
        <mxCell id="vm8o_c6Ydsdm37d8BDoq-143" value="H = 4" style="text;html=1;align=center;verticalAlign=middle;resizable=0;points=[];autosize=1;strokeColor=none;fillColor=none;fontColor=light-dark(#ff0000, #ededed);" vertex="1" parent="1">
          <mxGeometry x="575" y="550" width="50" height="30" as="geometry" />
        </mxCell>
        <mxCell id="vm8o_c6Ydsdm37d8BDoq-144" value="H = 1" style="text;html=1;align=center;verticalAlign=middle;resizable=0;points=[];autosize=1;strokeColor=none;fillColor=none;fontColor=light-dark(#ff0000, #ededed);" vertex="1" parent="1">
          <mxGeometry x="635" y="498" width="50" height="30" as="geometry" />
        </mxCell>
        <mxCell id="vm8o_c6Ydsdm37d8BDoq-145" value="H = 0" style="text;html=1;align=center;verticalAlign=middle;resizable=0;points=[];autosize=1;strokeColor=none;fillColor=none;fontColor=light-dark(#ff0000, #ededed);" vertex="1" parent="1">
          <mxGeometry x="695" y="550" width="50" height="30" as="geometry" />
        </mxCell>
        <mxCell id="vm8o_c6Ydsdm37d8BDoq-146" value="H = 7" style="text;html=1;align=center;verticalAlign=middle;resizable=0;points=[];autosize=1;strokeColor=none;fillColor=none;fontColor=light-dark(#ff0000, #ededed);" vertex="1" parent="1">
          <mxGeometry x="755" y="500" width="50" height="30" as="geometry" />
        </mxCell>
        <mxCell id="vm8o_c6Ydsdm37d8BDoq-147" value="3" style="text;html=1;align=center;verticalAlign=middle;resizable=0;points=[];autosize=1;strokeColor=none;fillColor=none;" vertex="1" parent="1">
          <mxGeometry x="685" y="440" width="30" height="30" as="geometry" />
        </mxCell>
        <mxCell id="vm8o_c6Ydsdm37d8BDoq-148" value="1" style="text;html=1;align=center;verticalAlign=middle;resizable=0;points=[];autosize=1;strokeColor=none;fillColor=none;" vertex="1" parent="1">
          <mxGeometry x="735" y="490" width="30" height="30" as="geometry" />
        </mxCell>
        <mxCell id="vm8o_c6Ydsdm37d8BDoq-149" value="1" style="text;html=1;align=center;verticalAlign=middle;resizable=0;points=[];autosize=1;strokeColor=none;fillColor=none;" vertex="1" parent="1">
          <mxGeometry x="675" y="540" width="30" height="30" as="geometry" />
        </mxCell>
        <mxCell id="vm8o_c6Ydsdm37d8BDoq-150" value="3" style="text;html=1;align=center;verticalAlign=middle;resizable=0;points=[];autosize=1;strokeColor=none;fillColor=none;" vertex="1" parent="1">
          <mxGeometry x="615" y="540" width="30" height="30" as="geometry" />
        </mxCell>
        <mxCell id="vm8o_c6Ydsdm37d8BDoq-151" value="3" style="text;html=1;align=center;verticalAlign=middle;resizable=0;points=[];autosize=1;strokeColor=none;fillColor=none;" vertex="1" parent="1">
          <mxGeometry x="555" y="490" width="30" height="30" as="geometry" />
        </mxCell>
        <mxCell id="vm8o_c6Ydsdm37d8BDoq-152" value="1" style="text;html=1;align=center;verticalAlign=middle;resizable=0;points=[];autosize=1;strokeColor=none;fillColor=none;" vertex="1" parent="1">
          <mxGeometry x="615" y="440" width="30" height="30" as="geometry" />
        </mxCell>
        <mxCell id="vm8o_c6Ydsdm37d8BDoq-153" value="1" style="text;html=1;align=center;verticalAlign=middle;resizable=0;points=[];autosize=1;strokeColor=none;fillColor=none;" vertex="1" parent="1">
          <mxGeometry x="615" y="498" width="30" height="30" as="geometry" />
        </mxCell>
        <mxCell id="vm8o_c6Ydsdm37d8BDoq-154" value="A*" style="text;html=1;align=center;verticalAlign=middle;whiteSpace=wrap;rounded=0;" vertex="1" parent="1">
          <mxGeometry x="10" y="680" width="60" height="30" as="geometry" />
        </mxCell>
        <mxCell id="vm8o_c6Ydsdm37d8BDoq-155" style="rounded=0;orthogonalLoop=1;jettySize=auto;html=1;exitX=0;exitY=1;exitDx=0;exitDy=0;entryX=1;entryY=0;entryDx=0;entryDy=0;fillColor=#f8cecc;strokeColor=#b85450;" edge="1" parent="1" source="vm8o_c6Ydsdm37d8BDoq-157" target="vm8o_c6Ydsdm37d8BDoq-160">
          <mxGeometry relative="1" as="geometry" />
        </mxCell>
        <mxCell id="vm8o_c6Ydsdm37d8BDoq-156" style="rounded=0;orthogonalLoop=1;jettySize=auto;html=1;exitX=1;exitY=1;exitDx=0;exitDy=0;entryX=0;entryY=0;entryDx=0;entryDy=0;" edge="1" parent="1" source="vm8o_c6Ydsdm37d8BDoq-157" target="vm8o_c6Ydsdm37d8BDoq-168">
          <mxGeometry relative="1" as="geometry" />
        </mxCell>
        <mxCell id="vm8o_c6Ydsdm37d8BDoq-157" value="A" style="ellipse;whiteSpace=wrap;html=1;aspect=fixed;fillColor=#f8cecc;strokeColor=#b85450;" vertex="1" parent="1">
          <mxGeometry x="190" y="710" width="30" height="30" as="geometry" />
        </mxCell>
        <mxCell id="vm8o_c6Ydsdm37d8BDoq-158" style="rounded=0;orthogonalLoop=1;jettySize=auto;html=1;exitX=0;exitY=1;exitDx=0;exitDy=0;entryX=1;entryY=0;entryDx=0;entryDy=0;" edge="1" parent="1" source="vm8o_c6Ydsdm37d8BDoq-160" target="vm8o_c6Ydsdm37d8BDoq-161">
          <mxGeometry relative="1" as="geometry" />
        </mxCell>
        <mxCell id="vm8o_c6Ydsdm37d8BDoq-159" style="rounded=0;orthogonalLoop=1;jettySize=auto;html=1;exitX=1;exitY=1;exitDx=0;exitDy=0;entryX=0;entryY=0;entryDx=0;entryDy=0;fillColor=#f8cecc;strokeColor=#b85450;" edge="1" parent="1" source="vm8o_c6Ydsdm37d8BDoq-160" target="vm8o_c6Ydsdm37d8BDoq-164">
          <mxGeometry relative="1" as="geometry" />
        </mxCell>
        <mxCell id="vm8o_c6Ydsdm37d8BDoq-160" value="B" style="ellipse;whiteSpace=wrap;html=1;aspect=fixed;fillColor=#f8cecc;strokeColor=#b85450;" vertex="1" parent="1">
          <mxGeometry x="130" y="760" width="30" height="30" as="geometry" />
        </mxCell>
        <mxCell id="vm8o_c6Ydsdm37d8BDoq-161" value="C" style="ellipse;whiteSpace=wrap;html=1;aspect=fixed;" vertex="1" parent="1">
          <mxGeometry x="70" y="808" width="30" height="30" as="geometry" />
        </mxCell>
        <mxCell id="vm8o_c6Ydsdm37d8BDoq-162" style="rounded=0;orthogonalLoop=1;jettySize=auto;html=1;exitX=0;exitY=1;exitDx=0;exitDy=0;entryX=1;entryY=0;entryDx=0;entryDy=0;" edge="1" parent="1" source="vm8o_c6Ydsdm37d8BDoq-164" target="vm8o_c6Ydsdm37d8BDoq-166">
          <mxGeometry relative="1" as="geometry" />
        </mxCell>
        <mxCell id="vm8o_c6Ydsdm37d8BDoq-163" style="rounded=0;orthogonalLoop=1;jettySize=auto;html=1;exitX=1;exitY=1;exitDx=0;exitDy=0;entryX=0;entryY=0;entryDx=0;entryDy=0;fillColor=#f8cecc;strokeColor=#b85450;" edge="1" parent="1" source="vm8o_c6Ydsdm37d8BDoq-164" target="vm8o_c6Ydsdm37d8BDoq-165">
          <mxGeometry relative="1" as="geometry" />
        </mxCell>
        <mxCell id="vm8o_c6Ydsdm37d8BDoq-164" value="D" style="ellipse;whiteSpace=wrap;html=1;aspect=fixed;fillColor=#f8cecc;strokeColor=#b85450;" vertex="1" parent="1">
          <mxGeometry x="190" y="808" width="30" height="30" as="geometry" />
        </mxCell>
        <mxCell id="vm8o_c6Ydsdm37d8BDoq-165" value="G" style="ellipse;whiteSpace=wrap;html=1;aspect=fixed;fillColor=#f8cecc;strokeColor=#b85450;" vertex="1" parent="1">
          <mxGeometry x="250" y="860" width="30" height="30" as="geometry" />
        </mxCell>
        <mxCell id="vm8o_c6Ydsdm37d8BDoq-166" value="E" style="ellipse;whiteSpace=wrap;html=1;aspect=fixed;" vertex="1" parent="1">
          <mxGeometry x="130" y="860" width="30" height="30" as="geometry" />
        </mxCell>
        <mxCell id="vm8o_c6Ydsdm37d8BDoq-167" style="rounded=0;orthogonalLoop=1;jettySize=auto;html=1;exitX=1;exitY=1;exitDx=0;exitDy=0;entryX=0;entryY=0;entryDx=0;entryDy=0;" edge="1" parent="1" source="vm8o_c6Ydsdm37d8BDoq-168" target="vm8o_c6Ydsdm37d8BDoq-169">
          <mxGeometry relative="1" as="geometry" />
        </mxCell>
        <mxCell id="vm8o_c6Ydsdm37d8BDoq-168" value="H" style="ellipse;whiteSpace=wrap;html=1;aspect=fixed;" vertex="1" parent="1">
          <mxGeometry x="250" y="760" width="30" height="30" as="geometry" />
        </mxCell>
        <mxCell id="vm8o_c6Ydsdm37d8BDoq-169" value="J" style="ellipse;whiteSpace=wrap;html=1;aspect=fixed;" vertex="1" parent="1">
          <mxGeometry x="310" y="810" width="30" height="30" as="geometry" />
        </mxCell>
        <mxCell id="vm8o_c6Ydsdm37d8BDoq-170" value="&lt;div&gt;F = 3&lt;/div&gt;&lt;div&gt;G = 0&lt;/div&gt;H = 3" style="text;html=1;align=center;verticalAlign=middle;resizable=0;points=[];autosize=1;strokeColor=none;fillColor=none;labelBackgroundColor=none;fontColor=light-dark(#ff0000, #ededed);" vertex="1" parent="1">
          <mxGeometry x="180" y="650" width="50" height="60" as="geometry" />
        </mxCell>
        <mxCell id="vm8o_c6Ydsdm37d8BDoq-171" value="&lt;div&gt;F = 3&lt;/div&gt;&lt;div&gt;G = 1&lt;/div&gt;H = 2" style="text;html=1;align=center;verticalAlign=middle;resizable=0;points=[];autosize=1;strokeColor=none;fillColor=none;fontColor=light-dark(#ff0000, #ededed);" vertex="1" parent="1">
          <mxGeometry x="120" y="705" width="50" height="60" as="geometry" />
        </mxCell>
        <mxCell id="vm8o_c6Ydsdm37d8BDoq-172" value="&lt;div&gt;&lt;span style=&quot;background-color: transparent; color: light-dark(rgb(255, 0, 0), rgb(237, 237, 237));&quot;&gt;F = 9&lt;/span&gt;&lt;/div&gt;&lt;span style=&quot;background-color: transparent; color: light-dark(rgb(255, 0, 0), rgb(237, 237, 237));&quot;&gt;&lt;div&gt;&lt;span style=&quot;background-color: transparent; color: light-dark(rgb(255, 0, 0), rgb(237, 237, 237));&quot;&gt;G = 4&lt;/span&gt;&lt;/div&gt;H = 5&lt;/span&gt;" style="text;html=1;align=center;verticalAlign=middle;resizable=0;points=[];autosize=1;strokeColor=none;fillColor=none;fontColor=light-dark(#ff0000, #ededed);" vertex="1" parent="1">
          <mxGeometry x="60" y="750" width="50" height="60" as="geometry" />
        </mxCell>
        <mxCell id="vm8o_c6Ydsdm37d8BDoq-173" value="&lt;div&gt;F = 9&lt;/div&gt;&lt;div&gt;G = 5&lt;/div&gt;H = 4" style="text;html=1;align=center;verticalAlign=middle;resizable=0;points=[];autosize=1;strokeColor=none;fillColor=none;fontColor=light-dark(#ff0000, #ededed);" vertex="1" parent="1">
          <mxGeometry x="120" y="805" width="50" height="60" as="geometry" />
        </mxCell>
        <mxCell id="vm8o_c6Ydsdm37d8BDoq-174" value="&lt;div&gt;F = 3&lt;/div&gt;&lt;div&gt;G = 2&lt;/div&gt;H = 1" style="text;html=1;align=center;verticalAlign=middle;resizable=0;points=[];autosize=1;strokeColor=none;fillColor=none;fontColor=light-dark(#ff0000, #ededed);" vertex="1" parent="1">
          <mxGeometry x="180" y="755" width="50" height="60" as="geometry" />
        </mxCell>
        <mxCell id="vm8o_c6Ydsdm37d8BDoq-175" value="&lt;div&gt;F = 3&lt;/div&gt;&lt;div&gt;G = 3&lt;/div&gt;H = 0" style="text;html=1;align=center;verticalAlign=middle;resizable=0;points=[];autosize=1;strokeColor=none;fillColor=none;fontColor=light-dark(#ff0000, #ededed);" vertex="1" parent="1">
          <mxGeometry x="240" y="805" width="50" height="60" as="geometry" />
        </mxCell>
        <mxCell id="vm8o_c6Ydsdm37d8BDoq-176" value="&lt;div&gt;F = 11&lt;/div&gt;&lt;div&gt;G = 4&lt;/div&gt;H = 7" style="text;html=1;align=center;verticalAlign=middle;resizable=0;points=[];autosize=1;strokeColor=none;fillColor=none;fontColor=light-dark(#ff0000, #ededed);" vertex="1" parent="1">
          <mxGeometry x="295" y="750" width="60" height="60" as="geometry" />
        </mxCell>
        <mxCell id="vm8o_c6Ydsdm37d8BDoq-177" value="3" style="text;html=1;align=center;verticalAlign=middle;resizable=0;points=[];autosize=1;strokeColor=none;fillColor=none;" vertex="1" parent="1">
          <mxGeometry x="230" y="720" width="30" height="30" as="geometry" />
        </mxCell>
        <mxCell id="vm8o_c6Ydsdm37d8BDoq-178" value="1" style="text;html=1;align=center;verticalAlign=middle;resizable=0;points=[];autosize=1;strokeColor=none;fillColor=none;" vertex="1" parent="1">
          <mxGeometry x="280" y="770" width="30" height="30" as="geometry" />
        </mxCell>
        <mxCell id="vm8o_c6Ydsdm37d8BDoq-179" value="1" style="text;html=1;align=center;verticalAlign=middle;resizable=0;points=[];autosize=1;strokeColor=none;fillColor=none;" vertex="1" parent="1">
          <mxGeometry x="220" y="820" width="30" height="30" as="geometry" />
        </mxCell>
        <mxCell id="vm8o_c6Ydsdm37d8BDoq-180" value="3" style="text;html=1;align=center;verticalAlign=middle;resizable=0;points=[];autosize=1;strokeColor=none;fillColor=none;" vertex="1" parent="1">
          <mxGeometry x="160" y="820" width="30" height="30" as="geometry" />
        </mxCell>
        <mxCell id="vm8o_c6Ydsdm37d8BDoq-181" value="3" style="text;html=1;align=center;verticalAlign=middle;resizable=0;points=[];autosize=1;strokeColor=none;fillColor=none;" vertex="1" parent="1">
          <mxGeometry x="100" y="770" width="30" height="30" as="geometry" />
        </mxCell>
        <mxCell id="vm8o_c6Ydsdm37d8BDoq-182" value="1" style="text;html=1;align=center;verticalAlign=middle;resizable=0;points=[];autosize=1;strokeColor=none;fillColor=none;" vertex="1" parent="1">
          <mxGeometry x="160" y="720" width="30" height="30" as="geometry" />
        </mxCell>
        <mxCell id="vm8o_c6Ydsdm37d8BDoq-183" value="1" style="text;html=1;align=center;verticalAlign=middle;resizable=0;points=[];autosize=1;strokeColor=none;fillColor=none;" vertex="1" parent="1">
          <mxGeometry x="160" y="778" width="30" height="30" as="geometry" />
        </mxCell>
        <mxCell id="vm8o_c6Ydsdm37d8BDoq-184" value="&lt;div&gt;F = 9&lt;/div&gt;&lt;div&gt;G = 3&lt;/div&gt;H = 6" style="text;html=1;align=center;verticalAlign=middle;resizable=0;points=[];autosize=1;strokeColor=none;fillColor=none;labelBackgroundColor=none;fontColor=light-dark(#ff0000, #ededed);" vertex="1" parent="1">
          <mxGeometry x="245" y="705" width="50" height="60" as="geometry" />
        </mxCell>
        <mxCell id="vm8o_c6Ydsdm37d8BDoq-185" value="H = 6" style="text;html=1;align=center;verticalAlign=middle;resizable=0;points=[];autosize=1;strokeColor=none;fillColor=none;fontColor=light-dark(#ff0000, #ededed);" vertex="1" parent="1">
          <mxGeometry x="700" y="450" width="50" height="30" as="geometry" />
        </mxCell>
        <mxCell id="vm8o_c6Ydsdm37d8BDoq-186" value="H = 6" style="text;html=1;align=center;verticalAlign=middle;resizable=0;points=[];autosize=1;strokeColor=none;fillColor=none;fontColor=light-dark(#ff0000, #ededed);" vertex="1" parent="1">
          <mxGeometry x="670" y="100" width="50" height="30" as="geometry" />
        </mxCell>
        <mxCell id="vm8o_c6Ydsdm37d8BDoq-187" value="H = 6" style="text;html=1;align=center;verticalAlign=middle;resizable=0;points=[];autosize=1;strokeColor=none;fillColor=none;fontColor=light-dark(#ff0000, #ededed);" vertex="1" parent="1">
          <mxGeometry x="240" y="450" width="50" height="30" as="geometry" />
        </mxCell>
      </root>
    </mxGraphModel>
  </diagram>
</mxfile>
